<svg width="182" height="19" viewBox="0 0 182 19" fill="none" xmlns="http://www.w3.org/2000/svg">
<path d="M4.35852 18.24C2.35852 18.24 0.798516 17.6867 -0.321484 16.58C-1.42815 15.4733 -1.98148 13.8933 -1.98148 11.84V4H1.25852V11.72C1.25852 14.2267 2.29852 15.48 4.37852 15.48C5.39185 15.48 6.16518 15.18 6.69852 14.58C7.23185 13.9667 7.49852 13.0133 7.49852 11.72V4H10.6985V11.84C10.6985 13.8933 10.1385 15.4733 9.01852 16.58C7.91185 17.6867 6.35852 18.24 4.35852 18.24ZM23.8202 18L21.1202 14.1H20.9602H18.1402V18H14.9002V4H20.9602C22.2002 4 23.2736 4.20667 24.1802 4.62C25.1002 5.03333 25.8069 5.62 26.3002 6.38C26.7936 7.14 27.0402 8.04 27.0402 9.08C27.0402 10.12 26.7869 11.02 26.2802 11.78C25.7869 12.5267 25.0802 13.1 24.1602 13.5L27.3002 18H23.8202ZM23.7602 9.08C23.7602 8.29333 23.5069 7.69333 23.0002 7.28C22.4936 6.85333 21.7536 6.64 20.7802 6.64H18.1402V11.52H20.7802C21.7536 11.52 22.4936 11.3067 23.0002 10.88C23.5069 10.4533 23.7602 9.85333 23.7602 9.08ZM30.6073 4H33.8473V15.36H40.8673V18H30.6073V4ZM53.0148 15H46.5148L45.2748 18H41.9548L48.1948 4H51.3948L57.6548 18H54.2548L53.0148 15ZM51.9948 12.54L49.7748 7.18L47.5548 12.54H51.9948ZM66.0343 18.24C64.0343 18.24 62.4743 17.6867 61.3543 16.58C60.2476 15.4733 59.6943 13.8933 59.6943 11.84V4H62.9343V11.72C62.9343 14.2267 63.9743 15.48 66.0543 15.48C67.0676 15.48 67.841 15.18 68.3743 14.58C68.9076 13.9667 69.1743 13.0133 69.1743 11.72V4H72.3743V11.84C72.3743 13.8933 71.8143 15.4733 70.6943 16.58C69.5876 17.6867 68.0343 18.24 66.0343 18.24ZM86.856 10.72C87.656 10.9733 88.2827 11.4 88.736 12C89.1893 12.5867 89.416 13.3133 89.416 14.18C89.416 15.4067 88.936 16.3533 87.976 17.02C87.0293 17.6733 85.6427 18 83.816 18H76.576V4H83.416C85.1227 4 86.4293 4.32667 87.336 4.98C88.256 5.63333 88.716 6.52 88.716 7.64C88.716 8.32 88.5493 8.92667 88.216 9.46C87.896 9.99333 87.4427 10.4133 86.856 10.72ZM79.796 6.44V9.74H83.016C83.816 9.74 84.4227 9.6 84.836 9.32C85.2493 9.04 85.456 8.62667 85.456 8.08C85.456 7.53333 85.2493 7.12667 84.836 6.86C84.4227 6.58 83.816 6.44 83.016 6.44H79.796ZM83.576 15.56C84.4293 15.56 85.0693 15.42 85.496 15.14C85.936 14.86 86.156 14.4267 86.156 13.84C86.156 12.68 85.296 12.1 83.576 12.1H79.796V15.56H83.576ZM97.469 18.24C96.3623 18.24 95.289 18.0933 94.249 17.8C93.2223 17.4933 92.3957 17.1 91.769 16.62L92.869 14.18C93.469 14.62 94.1823 14.9733 95.009 15.24C95.8357 15.5067 96.6623 15.64 97.489 15.64C98.409 15.64 99.089 15.5067 99.529 15.24C99.969 14.96 100.189 14.5933 100.189 14.14C100.189 13.8067 100.056 13.5333 99.789 13.32C99.5357 13.0933 99.2023 12.9133 98.789 12.78C98.389 12.6467 97.8423 12.5 97.149 12.34C96.0823 12.0867 95.209 11.8333 94.529 11.58C93.849 11.3267 93.2623 10.92 92.769 10.36C92.289 9.8 92.049 9.05333 92.049 8.12C92.049 7.30667 92.269 6.57333 92.709 5.92C93.149 5.25333 93.809 4.72667 94.689 4.34C95.5823 3.95333 96.669 3.76 97.949 3.76C98.8423 3.76 99.7157 3.86667 100.569 4.08C101.422 4.29333 102.169 4.6 102.809 5L101.809 7.46C100.516 6.72667 99.2223 6.36 97.929 6.36C97.0223 6.36 96.349 6.50667 95.909 6.8C95.4823 7.09333 95.269 7.48 95.269 7.96C95.269 8.44 95.5157 8.8 96.009 9.04C96.5157 9.26667 97.2823 9.49333 98.309 9.72C99.3757 9.97333 100.249 10.2267 100.929 10.48C101.609 10.7333 102.189 11.1333 102.669 11.68C103.162 12.2267 103.409 12.9667 103.409 13.9C103.409 14.7 103.182 15.4333 102.729 16.1C102.289 16.7533 101.622 17.2733 100.729 17.66C99.8357 18.0467 98.749 18.24 97.469 18.24ZM116.083 10.78H119.043V16.46C118.283 17.0333 117.403 17.4733 116.403 17.78C115.403 18.0867 114.396 18.24 113.383 18.24C111.93 18.24 110.623 17.9333 109.463 17.32C108.303 16.6933 107.39 15.8333 106.723 14.74C106.07 13.6333 105.743 12.3867 105.743 11C105.743 9.61333 106.07 8.37333 106.723 7.28C107.39 6.17333 108.31 5.31333 109.483 4.7C110.656 4.07333 111.976 3.76 113.443 3.76C114.67 3.76 115.783 3.96667 116.783 4.38C117.783 4.79333 118.623 5.39333 119.303 6.18L117.223 8.1C116.223 7.04667 115.016 6.52 113.603 6.52C112.71 6.52 111.916 6.70667 111.223 7.08C110.53 7.45333 109.99 7.98 109.603 8.66C109.216 9.34 109.023 10.12 109.023 11C109.023 11.8667 109.216 12.64 109.603 13.32C109.99 14 110.523 14.5333 111.203 14.92C111.896 15.2933 112.683 15.48 113.563 15.48C114.496 15.48 115.336 15.28 116.083 14.88V10.78ZM123.053 4H126.293V15.36H133.313V18H123.053V4ZM142.167 18.24C140.167 18.24 138.607 17.6867 137.487 16.58C136.38 15.4733 135.827 13.8933 135.827 11.84V4H139.067V11.72C139.067 14.2267 140.107 15.48 142.187 15.48C143.2 15.48 143.974 15.18 144.507 14.58C145.04 13.9667 145.307 13.0133 145.307 11.72V4H148.507V11.84C148.507 13.8933 147.947 15.4733 146.827 16.58C145.72 17.6867 144.167 18.24 142.167 18.24ZM140.167 2.76C139.767 2.76 139.434 2.63333 139.167 2.38C138.9 2.11333 138.767 1.78 138.767 1.38C138.767 0.979999 138.9 0.653332 139.167 0.399999C139.434 0.133332 139.767 -7.15256e-07 140.167 -7.15256e-07C140.567 -7.15256e-07 140.894 0.133332 141.147 0.399999C141.414 0.653332 141.547 0.979999 141.547 1.38C141.547 1.78 141.414 2.11333 141.147 2.38C140.894 2.63333 140.567 2.76 140.167 2.76ZM144.207 2.76C143.807 2.76 143.474 2.63333 143.207 2.38C142.954 2.11333 142.827 1.78 142.827 1.38C142.827 0.979999 142.954 0.653332 143.207 0.399999C143.474 0.133332 143.807 -7.15256e-07 144.207 -7.15256e-07C144.607 -7.15256e-07 144.94 0.133332 145.207 0.399999C145.474 0.653332 145.607 0.979999 145.607 1.38C145.607 1.78 145.474 2.11333 145.207 2.38C144.94 2.63333 144.607 2.76 144.207 2.76ZM159.409 18.24C157.982 18.24 156.689 17.9333 155.529 17.32C154.382 16.6933 153.475 15.8333 152.809 14.74C152.155 13.6333 151.829 12.3867 151.829 11C151.829 9.61333 152.155 8.37333 152.809 7.28C153.475 6.17333 154.382 5.31333 155.529 4.7C156.689 4.07333 157.989 3.76 159.429 3.76C160.642 3.76 161.735 3.97333 162.709 4.4C163.695 4.82667 164.522 5.44 165.189 6.24L163.109 8.16C162.162 7.06667 160.989 6.52 159.589 6.52C158.722 6.52 157.949 6.71333 157.269 7.1C156.589 7.47333 156.055 8 155.669 8.68C155.295 9.36 155.109 10.1333 155.109 11C155.109 11.8667 155.295 12.64 155.669 13.32C156.055 14 156.589 14.5333 157.269 14.92C157.949 15.2933 158.722 15.48 159.589 15.48C160.989 15.48 162.162 14.9267 163.109 13.82L165.189 15.74C164.522 16.5533 163.695 17.1733 162.709 17.6C161.722 18.0267 160.622 18.24 159.409 18.24ZM173.477 12.5L171.597 14.46V18H168.377V4H171.597V10.54L177.797 4H181.397L175.597 10.24L181.737 18H177.957L173.477 12.5Z" fill="white"/>
</svg>
